<svg width="388" height="289" viewBox="0 0 388 289" fill="none" xmlns="http://www.w3.org/2000/svg">
<g clip-path="url(#clip0_267_3298)">
<rect width="392" height="369" rx="15" fill="#EC704B"/>
<path d="M423.988 194.861L423.079 194.134C404.759 179.748 380.915 172.583 357.071 172.527C374.202 158.756 384.691 139.78 384.621 118.845C358.469 118.789 334.765 127.186 317.564 140.9C317.494 121.476 308.194 102.108 289.594 87.3302C271.064 102.108 261.694 121.476 261.624 140.9C244.423 127.186 220.719 118.789 194.567 118.845C194.497 139.78 204.986 158.756 222.117 172.527C197.854 172.583 173.66 180.028 155.2 194.917C173.66 209.751 197.854 217.252 222.117 217.308C205.336 230.854 194.847 249.383 194.567 269.926V270.99H195.896C221.558 270.766 244.773 262.369 261.624 248.935C261.694 268.023 270.715 287.055 288.615 301.777L289.524 302.505L290.433 301.777C308.404 287.111 317.424 268.023 317.424 248.935C334.346 262.369 357.49 270.766 383.153 270.99H384.481V269.926C384.202 249.383 373.713 230.799 356.931 217.308C380.775 217.252 404.549 210.031 422.939 195.701L423.988 194.861Z" fill="#FF5A28"/>
<path d="M407.119 195.319L406.328 194.686C390.384 182.166 369.632 175.93 348.881 175.881C363.79 163.897 372.919 147.382 372.858 129.162C350.098 129.114 329.468 136.421 314.498 148.357C314.437 131.452 306.344 114.596 290.156 101.735C274.03 114.596 265.875 131.452 265.815 148.357C250.844 136.421 230.215 129.114 207.455 129.162C207.394 147.382 216.522 163.897 231.432 175.881C210.315 175.93 189.26 182.409 173.194 195.368C189.26 208.277 210.315 214.805 231.432 214.854C216.827 226.643 207.699 242.768 207.455 260.647V261.573H208.611C230.945 261.378 251.149 254.071 265.815 242.379C265.875 258.991 273.726 275.554 289.304 288.367L290.096 289L290.887 288.367C306.526 275.603 314.376 258.991 314.376 242.379C329.103 254.071 349.246 261.378 371.58 261.573H372.736V260.647C372.493 242.768 363.364 226.595 348.759 214.854C369.511 214.805 390.201 208.521 406.206 196.05L407.119 195.319Z" fill="#FF4710"/>
<path d="M40.852 157.024H45.416L41.664 174.748H36.204C35.6253 172.751 35.1213 170.8 34.692 168.896C34.2813 166.992 33.8893 164.957 33.516 162.792H33.46C33.0307 164.957 32.6013 166.992 32.172 168.896C31.7613 170.8 31.2947 172.751 30.772 174.748H25.312L21.56 157.024H26.124C26.404 158.331 26.656 159.609 26.88 160.86C27.104 162.111 27.3187 163.389 27.524 164.696C27.748 165.984 27.972 167.384 28.196 168.896H28.252C28.532 167.384 28.8027 165.984 29.064 164.696C29.3253 163.389 29.596 162.111 29.876 160.86C30.156 159.609 30.4547 158.331 30.772 157.024H36.204C36.6333 159.003 37.0533 160.981 37.464 162.96C37.8933 164.939 38.3133 166.917 38.724 168.896H38.78C39.1347 166.917 39.48 164.939 39.816 162.96C40.152 160.981 40.4973 159.003 40.852 157.024ZM59.1568 174.3C58.6342 174.487 57.9062 174.655 56.9728 174.804C56.0582 174.935 54.9662 175 53.6968 175C52.0915 175 50.7195 174.795 49.5808 174.384C48.4608 173.955 47.6115 173.236 47.0328 172.228C46.4542 171.201 46.1648 169.783 46.1648 167.972C46.1648 165.508 46.7248 163.725 47.8448 162.624C48.9835 161.523 50.7382 160.972 53.1088 160.972C54.8075 160.972 56.1422 161.215 57.1128 161.7C58.1022 162.185 58.8022 162.876 59.2128 163.772C59.6422 164.649 59.8568 165.695 59.8568 166.908C59.8568 167.263 59.8382 167.645 59.8008 168.056C59.7822 168.467 59.7355 168.868 59.6608 169.26L59.5488 169.372H50.3368C50.4675 170.193 50.8502 170.735 51.4848 170.996C52.1382 171.257 53.1928 171.388 54.6488 171.388C55.6195 171.388 56.4222 171.369 57.0568 171.332C57.7102 171.276 58.3728 171.201 59.0448 171.108L59.1568 171.192V174.3ZM55.9648 166.432C55.9648 165.984 55.8902 165.601 55.7408 165.284C55.6102 164.948 55.3395 164.696 54.9288 164.528C54.5182 164.341 53.9115 164.248 53.1088 164.248C51.9328 164.248 51.1582 164.453 50.7848 164.864C50.4302 165.256 50.2528 165.779 50.2528 166.432H55.9648ZM75.5706 167.328C75.5706 169.848 75.0573 171.761 74.0306 173.068C73.0039 174.356 71.2586 175 68.7946 175C67.4133 175 66.1253 174.953 64.9306 174.86C63.7546 174.748 62.7186 174.617 61.8226 174.468L61.7386 174.412V155.904H66.2186V163.212H66.3306C66.5919 162.54 67.0213 161.999 67.6186 161.588C68.2346 161.177 69.1026 160.972 70.2226 160.972C73.7879 160.972 75.5706 163.091 75.5706 167.328ZM66.2186 167.804V171.08C66.6666 171.155 67.1893 171.192 67.7866 171.192C68.6639 171.192 69.3453 171.117 69.8306 170.968C70.3346 170.8 70.6893 170.483 70.8946 170.016C71.0999 169.549 71.2026 168.877 71.2026 168C71.2026 166.899 71.0439 166.087 70.7266 165.564C70.4093 165.041 69.7559 164.78 68.7666 164.78C68.0199 164.78 67.4039 165.013 66.9186 165.48C66.4519 165.928 66.2186 166.703 66.2186 167.804ZM85.348 174.748V157.024H93.104C94.6533 157.024 95.9506 157.155 96.996 157.416C98.0413 157.659 98.8813 158.097 99.516 158.732C100.151 159.367 100.608 160.253 100.888 161.392C101.168 162.512 101.308 163.959 101.308 165.732C101.308 167.58 101.168 169.092 100.888 170.268C100.608 171.444 100.151 172.359 99.516 173.012C98.8813 173.665 98.0413 174.123 96.996 174.384C95.9506 174.627 94.6533 174.748 93.104 174.748H85.348ZM92.46 160.804H89.828V170.968H92.46C93.5426 170.968 94.392 170.847 95.008 170.604C95.6426 170.361 96.0906 169.867 96.352 169.12C96.632 168.373 96.772 167.244 96.772 165.732C96.772 164.295 96.632 163.231 96.352 162.54C96.0906 161.831 95.6426 161.364 95.008 161.14C94.392 160.916 93.5426 160.804 92.46 160.804ZM115.618 174.3C115.095 174.487 114.367 174.655 113.434 174.804C112.519 174.935 111.427 175 110.158 175C108.552 175 107.18 174.795 106.042 174.384C104.922 173.955 104.072 173.236 103.494 172.228C102.915 171.201 102.626 169.783 102.626 167.972C102.626 165.508 103.186 163.725 104.306 162.624C105.444 161.523 107.199 160.972 109.57 160.972C111.268 160.972 112.603 161.215 113.574 161.7C114.563 162.185 115.263 162.876 115.674 163.772C116.103 164.649 116.318 165.695 116.318 166.908C116.318 167.263 116.299 167.645 116.262 168.056C116.243 168.467 116.196 168.868 116.122 169.26L116.01 169.372H106.798C106.928 170.193 107.311 170.735 107.946 170.996C108.599 171.257 109.654 171.388 111.11 171.388C112.08 171.388 112.883 171.369 113.518 171.332C114.171 171.276 114.834 171.201 115.506 171.108L115.618 171.192V174.3ZM112.426 166.432C112.426 165.984 112.351 165.601 112.202 165.284C112.071 164.948 111.8 164.696 111.39 164.528C110.979 164.341 110.372 164.248 109.57 164.248C108.394 164.248 107.619 164.453 107.246 164.864C106.891 165.256 106.714 165.779 106.714 166.432H112.426ZM131.052 161.196L126.6 174.748H121L116.8 161.168V161.112H121.84C122.232 162.568 122.596 164.145 122.932 165.844C123.286 167.543 123.604 169.176 123.884 170.744H123.996C124.276 169.176 124.584 167.543 124.92 165.844C125.274 164.145 125.648 162.568 126.04 161.112H131.052V161.196ZM144.532 174.3C144.009 174.487 143.281 174.655 142.348 174.804C141.433 174.935 140.341 175 139.072 175C137.467 175 136.095 174.795 134.956 174.384C133.836 173.955 132.987 173.236 132.408 172.228C131.829 171.201 131.54 169.783 131.54 167.972C131.54 165.508 132.1 163.725 133.22 162.624C134.359 161.523 136.113 160.972 138.484 160.972C140.183 160.972 141.517 161.215 142.488 161.7C143.477 162.185 144.177 162.876 144.588 163.772C145.017 164.649 145.232 165.695 145.232 166.908C145.232 167.263 145.213 167.645 145.176 168.056C145.157 168.467 145.111 168.868 145.036 169.26L144.924 169.372H135.712C135.843 170.193 136.225 170.735 136.86 170.996C137.513 171.257 138.568 171.388 140.024 171.388C140.995 171.388 141.797 171.369 142.432 171.332C143.085 171.276 143.748 171.201 144.42 171.108L144.532 171.192V174.3ZM141.34 166.432C141.34 165.984 141.265 165.601 141.116 165.284C140.985 164.948 140.715 164.696 140.304 164.528C139.893 164.341 139.287 164.248 138.484 164.248C137.308 164.248 136.533 164.453 136.16 164.864C135.805 165.256 135.628 165.779 135.628 166.432H141.34ZM151.594 174.748H147.114V155.904H151.594V174.748ZM153.481 168.028C153.481 165.527 154.013 163.725 155.077 162.624C156.141 161.523 157.943 160.972 160.481 160.972C162.18 160.972 163.543 161.215 164.569 161.7C165.596 162.185 166.333 162.951 166.781 163.996C167.248 165.023 167.481 166.367 167.481 168.028C167.481 169.671 167.248 171.005 166.781 172.032C166.333 173.059 165.596 173.815 164.569 174.3C163.543 174.767 162.18 175 160.481 175C157.943 175 156.141 174.459 155.077 173.376C154.013 172.275 153.481 170.492 153.481 168.028ZM160.481 171.164C161.564 171.164 162.292 170.931 162.665 170.464C163.057 169.979 163.253 169.139 163.253 167.944C163.253 166.805 163.057 165.993 162.665 165.508C162.292 165.004 161.564 164.752 160.481 164.752C159.436 164.752 158.708 165.004 158.297 165.508C157.905 165.993 157.709 166.805 157.709 167.944C157.709 169.139 157.905 169.979 158.297 170.464C158.708 170.931 159.436 171.164 160.481 171.164ZM173.836 179.956H169.356V161.112H173.612L173.836 163.044V163.212H173.892C174.209 162.447 174.657 161.887 175.236 161.532C175.833 161.159 176.692 160.972 177.812 160.972C179.622 160.972 180.948 161.504 181.788 162.568C182.646 163.613 183.085 165.2 183.104 167.328C183.141 169.213 182.945 170.725 182.516 171.864C182.105 172.984 181.461 173.787 180.584 174.272C179.706 174.757 178.586 175 177.224 175C176.514 175 175.87 174.935 175.292 174.804C174.732 174.673 174.265 174.515 173.892 174.328L173.836 174.356V179.956ZM176.356 164.78C175.609 164.78 175.002 165.013 174.536 165.48C174.069 165.928 173.836 166.703 173.836 167.804V170.744C174.526 171.024 175.338 171.164 176.272 171.164C177.149 171.164 177.774 170.959 178.148 170.548C178.54 170.119 178.736 169.269 178.736 168C178.736 166.899 178.586 166.087 178.288 165.564C177.989 165.041 177.345 164.78 176.356 164.78ZM201.929 160.972C203.31 160.972 204.402 161.429 205.205 162.344C206.026 163.259 206.437 164.845 206.437 167.104V174.748H201.957L201.929 167.664C201.929 166.749 201.789 166.087 201.509 165.676C201.247 165.265 200.725 165.06 199.941 165.06C199.157 165.06 198.625 165.265 198.345 165.676C198.083 166.087 197.953 166.749 197.953 167.664V174.748H193.473L193.445 167.664C193.445 166.749 193.305 166.087 193.025 165.676C192.763 165.265 192.241 165.06 191.457 165.06C190.673 165.06 190.141 165.265 189.861 165.676C189.599 166.087 189.469 166.749 189.469 167.664V174.748H184.989V161.112H189.245L189.469 163.604H189.553C189.795 162.783 190.215 162.139 190.813 161.672C191.429 161.205 192.297 160.972 193.417 160.972C194.537 160.972 195.414 161.205 196.049 161.672C196.702 162.139 197.122 162.783 197.309 163.604H197.393C197.635 162.764 198.102 162.12 198.793 161.672C199.502 161.205 200.547 160.972 201.929 160.972ZM221.028 174.3C220.505 174.487 219.777 174.655 218.844 174.804C217.929 174.935 216.837 175 215.568 175C213.963 175 212.591 174.795 211.452 174.384C210.332 173.955 209.483 173.236 208.904 172.228C208.325 171.201 208.036 169.783 208.036 167.972C208.036 165.508 208.596 163.725 209.716 162.624C210.855 161.523 212.609 160.972 214.98 160.972C216.679 160.972 218.013 161.215 218.984 161.7C219.973 162.185 220.673 162.876 221.084 163.772C221.513 164.649 221.728 165.695 221.728 166.908C221.728 167.263 221.709 167.645 221.672 168.056C221.653 168.467 221.607 168.868 221.532 169.26L221.42 169.372H212.208C212.339 170.193 212.721 170.735 213.356 170.996C214.009 171.257 215.064 171.388 216.52 171.388C217.491 171.388 218.293 171.369 218.928 171.332C219.581 171.276 220.244 171.201 220.916 171.108L221.028 171.192V174.3ZM217.836 166.432C217.836 165.984 217.761 165.601 217.612 165.284C217.481 164.948 217.211 164.696 216.8 164.528C216.389 164.341 215.783 164.248 214.98 164.248C213.804 164.248 213.029 164.453 212.656 164.864C212.301 165.256 212.124 165.779 212.124 166.432H217.836ZM228.09 174.748H223.61V161.112H227.866L228.09 163.604H228.174C228.435 162.764 228.902 162.12 229.574 161.672C230.246 161.205 231.179 160.972 232.374 160.972C233.998 160.972 235.192 161.429 235.958 162.344C236.742 163.259 237.134 164.845 237.134 167.104V174.748H232.654L232.626 167.972C232.626 166.927 232.467 166.18 232.15 165.732C231.832 165.284 231.235 165.06 230.358 165.06C229.536 165.06 228.958 165.265 228.622 165.676C228.286 166.068 228.108 166.749 228.09 167.72V174.748ZM239.987 170.66V164.78H238.307V161.14H240.407L241.247 157.808H244.467V161.14H247.519V164.78H244.467V169.68C244.467 170.203 244.533 170.567 244.663 170.772C244.794 170.959 245.093 171.052 245.559 171.052C245.858 171.052 246.175 171.043 246.511 171.024C246.847 170.987 247.183 170.949 247.519 170.912L247.603 170.968V174.608C246.707 174.869 245.522 175 244.047 175C242.573 175 241.527 174.664 240.911 173.992C240.295 173.32 239.987 172.209 239.987 170.66Z" fill="#1A1A1A"/>
<circle cx="310" cy="227" r="14" fill="#1A1A1A"/>
<path d="M307.354 223.646C307.158 223.451 306.842 223.451 306.646 223.646C306.451 223.842 306.451 224.158 306.646 224.354L307.354 223.646ZM313 230.5C313.276 230.5 313.5 230.276 313.5 230L313.5 225.5C313.5 225.224 313.276 225 313 225C312.724 225 312.5 225.224 312.5 225.5L312.5 229.5L308.5 229.5C308.224 229.5 308 229.724 308 230C308 230.276 308.224 230.5 308.5 230.5L313 230.5ZM306.646 224.354L312.646 230.354L313.354 229.646L307.354 223.646L306.646 224.354Z" fill="white"/>
</g>
<defs>
<clipPath id="clip0_267_3298">
<rect width="388" height="289" rx="38" fill="white"/>
</clipPath>
</defs>
</svg>
