<svg width="389" height="289" viewBox="0 0 389 289" fill="none" xmlns="http://www.w3.org/2000/svg">
<g clip-path="url(#clip0_267_3308)">
<rect width="392" height="369" rx="15" fill="#D2FF1F"/>
<path d="M302.347 142.796C286.774 149.943 268.343 143.109 261.138 127.515C249.067 101.216 217.885 89.6534 191.587 101.724C165.288 113.794 153.725 144.976 165.796 171.275C172.943 186.847 166.109 205.278 150.515 212.484C124.216 224.554 112.653 255.736 124.724 282.034C136.794 308.333 167.976 319.896 194.275 307.825C209.847 300.678 228.278 307.513 235.484 323.107C247.554 349.405 278.736 360.968 305.034 348.897C331.333 336.827 342.896 305.645 330.825 279.347C323.678 263.774 330.512 245.343 346.106 238.138C372.405 226.067 383.968 194.885 371.897 168.587C359.827 142.288 328.703 130.747 302.347 142.796Z" fill="#95BB00"/>
<path d="M296.565 150.01C282.474 156.477 265.797 150.293 259.278 136.183C248.356 112.387 220.142 101.925 196.346 112.847C172.551 123.768 162.088 151.983 173.01 175.778C179.477 189.869 173.293 206.545 159.183 213.065C135.387 223.987 124.925 252.201 135.847 275.997C146.768 299.792 174.983 310.255 198.778 299.333C212.869 292.866 229.545 299.05 236.065 313.16C246.987 336.955 275.201 347.418 298.997 336.496C322.792 325.574 333.255 297.36 322.333 273.565C315.866 259.474 322.05 242.797 336.16 236.278C359.955 225.356 370.418 197.142 359.496 173.346C348.574 149.551 320.413 139.108 296.565 150.01Z" fill="#84A501"/>
<path d="M26.12 165.872C26.12 163.613 26.372 161.821 26.876 160.496C27.3987 159.171 28.2853 158.219 29.536 157.64C30.8053 157.061 32.5693 156.772 34.828 156.772C36.5267 156.772 37.936 156.931 39.056 157.248C40.176 157.565 41.0627 158.079 41.716 158.788C42.3693 159.497 42.8267 160.44 43.088 161.616C43.368 162.773 43.508 164.192 43.508 165.872C43.508 167.571 43.368 169.008 43.088 170.184C42.8267 171.341 42.3693 172.275 41.716 172.984C41.0627 173.693 40.176 174.207 39.056 174.524C37.936 174.841 36.5267 175 34.828 175C33.1293 175 31.72 174.841 30.6 174.524C29.48 174.207 28.5933 173.693 27.94 172.984C27.2867 172.275 26.82 171.341 26.54 170.184C26.26 169.008 26.12 167.571 26.12 165.872ZM34.828 171.08C36.0227 171.08 36.9187 170.931 37.516 170.632C38.1133 170.333 38.5147 169.811 38.72 169.064C38.9253 168.299 39.028 167.235 39.028 165.872C39.028 164.528 38.9253 163.483 38.72 162.736C38.5147 161.989 38.1133 161.467 37.516 161.168C36.9187 160.851 36.0227 160.692 34.828 160.692C33.652 160.692 32.756 160.851 32.14 161.168C31.5427 161.467 31.132 161.989 30.908 162.736C30.7027 163.483 30.6 164.528 30.6 165.872C30.6 167.235 30.7027 168.299 30.908 169.064C31.132 169.811 31.5427 170.333 32.14 170.632C32.756 170.931 33.652 171.08 34.828 171.08ZM59.6448 167.328C59.6448 169.848 59.1315 171.761 58.1048 173.068C57.0781 174.356 55.3328 175 52.8688 175C51.4875 175 50.1995 174.953 49.0048 174.86C47.8288 174.748 46.7928 174.617 45.8968 174.468L45.8128 174.412V155.904H50.2928V163.212H50.4048C50.6661 162.54 51.0955 161.999 51.6928 161.588C52.3088 161.177 53.1768 160.972 54.2968 160.972C57.8621 160.972 59.6448 163.091 59.6448 167.328ZM50.2928 167.804V171.08C50.7408 171.155 51.2635 171.192 51.8608 171.192C52.7381 171.192 53.4195 171.117 53.9048 170.968C54.4088 170.8 54.7635 170.483 54.9688 170.016C55.1741 169.549 55.2768 168.877 55.2768 168C55.2768 166.899 55.1181 166.087 54.8008 165.564C54.4835 165.041 53.8301 164.78 52.8408 164.78C52.0941 164.78 51.4781 165.013 50.9928 165.48C50.5261 165.928 50.2928 166.703 50.2928 167.804ZM66.0077 156.044C66.0637 156.716 66.0917 157.276 66.0917 157.724C66.0917 157.985 66.0823 158.256 66.0637 158.536C66.0637 158.797 66.045 159.096 66.0077 159.432C65.6157 159.507 65.233 159.563 64.8597 159.6C64.4863 159.637 64.113 159.656 63.7397 159.656C63.385 159.656 63.021 159.637 62.6477 159.6C62.293 159.563 61.929 159.507 61.5557 159.432C61.5183 159.115 61.4903 158.825 61.4717 158.564C61.453 158.284 61.4437 158.013 61.4437 157.752C61.4437 157.509 61.453 157.248 61.4717 156.968C61.4903 156.688 61.5183 156.38 61.5557 156.044C61.929 155.951 62.3023 155.895 62.6757 155.876C63.0677 155.839 63.4503 155.82 63.8237 155.82C64.1783 155.82 64.533 155.839 64.8877 155.876C65.261 155.895 65.6343 155.951 66.0077 156.044ZM65.9797 174.804C65.9797 176.129 65.849 177.165 65.5877 177.912C65.3263 178.677 64.8877 179.209 64.2717 179.508C63.6743 179.807 62.8717 179.956 61.8637 179.956C61.285 179.956 60.7437 179.919 60.2397 179.844C59.7543 179.788 59.297 179.695 58.8677 179.564V175.952L58.9517 175.896C59.157 175.933 59.3717 175.961 59.5957 175.98C59.801 176.017 60.053 176.036 60.3517 176.036C60.837 176.036 61.145 175.933 61.2757 175.728C61.425 175.541 61.4997 175.187 61.4997 174.664V161.112H65.9797V174.804ZM80.6412 174.3C80.1186 174.487 79.3906 174.655 78.4572 174.804C77.5426 174.935 76.4506 175 75.1812 175C73.5759 175 72.2039 174.795 71.0652 174.384C69.9452 173.955 69.0959 173.236 68.5172 172.228C67.9386 171.201 67.6492 169.783 67.6492 167.972C67.6492 165.508 68.2092 163.725 69.3292 162.624C70.4679 161.523 72.2226 160.972 74.5932 160.972C76.2919 160.972 77.6266 161.215 78.5972 161.7C79.5866 162.185 80.2866 162.876 80.6972 163.772C81.1266 164.649 81.3412 165.695 81.3412 166.908C81.3412 167.263 81.3226 167.645 81.2852 168.056C81.2666 168.467 81.2199 168.868 81.1452 169.26L81.0332 169.372H71.8212C71.9519 170.193 72.3346 170.735 72.9692 170.996C73.6226 171.257 74.6772 171.388 76.1332 171.388C77.1039 171.388 77.9066 171.369 78.5412 171.332C79.1946 171.276 79.8572 171.201 80.5292 171.108L80.6412 171.192V174.3ZM77.4492 166.432C77.4492 165.984 77.3746 165.601 77.2252 165.284C77.0946 164.948 76.8239 164.696 76.4132 164.528C76.0026 164.341 75.3959 164.248 74.5932 164.248C73.4172 164.248 72.6426 164.453 72.2692 164.864C71.9146 165.256 71.7372 165.779 71.7372 166.432H77.4492ZM93.835 170.8V174.44C93.3683 174.627 92.6776 174.767 91.763 174.86C90.8483 174.953 89.8776 175 88.851 175C87.3763 175 86.1443 174.795 85.155 174.384C84.1843 173.973 83.4563 173.264 82.971 172.256C82.5043 171.248 82.2616 169.848 82.243 168.056C82.243 166.208 82.495 164.771 82.999 163.744C83.5216 162.717 84.2776 161.999 85.267 161.588C86.2563 161.177 87.4416 160.972 88.823 160.972C89.6443 160.972 90.5123 161.028 91.427 161.14C92.3416 161.252 93.0883 161.401 93.667 161.588L93.695 165.34L93.611 165.396C93.051 165.284 92.4536 165.2 91.819 165.144C91.1843 165.088 90.559 165.06 89.943 165.06C88.6923 165.06 87.8243 165.293 87.339 165.76C86.8536 166.227 86.611 167.011 86.611 168.112C86.611 168.952 86.7136 169.577 86.919 169.988C87.1243 170.399 87.4696 170.669 87.955 170.8C88.4403 170.931 89.103 170.996 89.943 170.996C90.5963 170.996 91.2216 170.968 91.819 170.912C92.4163 170.856 93.051 170.791 93.723 170.716L93.835 170.8ZM96.128 170.66V164.78H94.448V161.14H96.548L97.388 157.808H100.608V161.14H103.66V164.78H100.608V169.68C100.608 170.203 100.673 170.567 100.804 170.772C100.935 170.959 101.233 171.052 101.7 171.052C101.999 171.052 102.316 171.043 102.652 171.024C102.988 170.987 103.324 170.949 103.66 170.912L103.744 170.968V174.608C102.848 174.869 101.663 175 100.188 175C98.7133 175 97.668 174.664 97.052 173.992C96.436 173.32 96.128 172.209 96.128 170.66ZM113.1 165.872C113.1 163.613 113.352 161.821 113.856 160.496C114.379 159.171 115.266 158.219 116.516 157.64C117.786 157.061 119.55 156.772 121.808 156.772C123.507 156.772 124.916 156.931 126.036 157.248C127.156 157.565 128.043 158.079 128.696 158.788C129.35 159.497 129.807 160.44 130.068 161.616C130.348 162.773 130.488 164.192 130.488 165.872C130.488 167.571 130.348 169.008 130.068 170.184C129.807 171.341 129.35 172.275 128.696 172.984C128.043 173.693 127.156 174.207 126.036 174.524C124.916 174.841 123.507 175 121.808 175C120.11 175 118.7 174.841 117.58 174.524C116.46 174.207 115.574 173.693 114.92 172.984C114.267 172.275 113.8 171.341 113.52 170.184C113.24 169.008 113.1 167.571 113.1 165.872ZM121.808 171.08C123.003 171.08 123.899 170.931 124.496 170.632C125.094 170.333 125.495 169.811 125.7 169.064C125.906 168.299 126.008 167.235 126.008 165.872C126.008 164.528 125.906 163.483 125.7 162.736C125.495 161.989 125.094 161.467 124.496 161.168C123.899 160.851 123.003 160.692 121.808 160.692C120.632 160.692 119.736 160.851 119.12 161.168C118.523 161.467 118.112 161.989 117.888 162.736C117.683 163.483 117.58 164.528 117.58 165.872C117.58 167.235 117.683 168.299 117.888 169.064C118.112 169.811 118.523 170.333 119.12 170.632C119.736 170.931 120.632 171.08 121.808 171.08ZM137.273 174.748H132.793V161.112H136.433L136.797 163.912H136.881C137.049 162.867 137.451 162.12 138.085 161.672C138.72 161.205 139.663 160.972 140.913 160.972C141.417 160.972 141.875 161 142.285 161.056C142.696 161.093 143.041 161.131 143.321 161.168V165.536L143.265 165.592C142.967 165.517 142.621 165.452 142.229 165.396C141.856 165.34 141.427 165.312 140.941 165.312C140.251 165.312 139.625 165.424 139.065 165.648C138.524 165.872 138.095 166.311 137.777 166.964C137.479 167.599 137.329 168.551 137.329 169.82L137.273 174.748ZM149.017 156.044C149.073 156.716 149.101 157.276 149.101 157.724C149.101 157.985 149.092 158.256 149.073 158.536C149.073 158.797 149.055 159.096 149.017 159.432C148.625 159.507 148.243 159.563 147.869 159.6C147.496 159.637 147.123 159.656 146.749 159.656C146.395 159.656 146.031 159.637 145.657 159.6C145.303 159.563 144.939 159.507 144.565 159.432C144.528 159.115 144.5 158.825 144.481 158.564C144.463 158.284 144.453 158.013 144.453 157.752C144.453 157.509 144.463 157.248 144.481 156.968C144.5 156.688 144.528 156.38 144.565 156.044C144.939 155.951 145.312 155.895 145.685 155.876C146.077 155.839 146.46 155.82 146.833 155.82C147.188 155.82 147.543 155.839 147.897 155.876C148.271 155.895 148.644 155.951 149.017 156.044ZM149.017 174.748H144.537V161.112H149.017V174.748ZM163.63 174.3C163.107 174.487 162.379 174.655 161.446 174.804C160.531 174.935 159.439 175 158.169 175C156.564 175 155.192 174.795 154.053 174.384C152.934 173.955 152.084 173.236 151.506 172.228C150.927 171.201 150.638 169.783 150.638 167.972C150.638 165.508 151.198 163.725 152.318 162.624C153.456 161.523 155.211 160.972 157.582 160.972C159.28 160.972 160.615 161.215 161.586 161.7C162.575 162.185 163.275 162.876 163.686 163.772C164.115 164.649 164.329 165.695 164.329 166.908C164.329 167.263 164.311 167.645 164.274 168.056C164.255 168.467 164.208 168.868 164.134 169.26L164.022 169.372H154.81C154.94 170.193 155.323 170.735 155.958 170.996C156.611 171.257 157.666 171.388 159.122 171.388C160.092 171.388 160.895 171.369 161.53 171.332C162.183 171.276 162.846 171.201 163.518 171.108L163.63 171.192V174.3ZM160.438 166.432C160.438 165.984 160.363 165.601 160.214 165.284C160.083 164.948 159.812 164.696 159.402 164.528C158.991 164.341 158.384 164.248 157.582 164.248C156.406 164.248 155.631 164.453 155.258 164.864C154.903 165.256 154.726 165.779 154.726 166.432H160.438ZM170.691 174.748H166.211V161.112H170.467L170.691 163.604H170.775C171.037 162.764 171.503 162.12 172.175 161.672C172.847 161.205 173.781 160.972 174.975 160.972C176.599 160.972 177.794 161.429 178.559 162.344C179.343 163.259 179.735 164.845 179.735 167.104V174.748H175.255L175.227 167.972C175.227 166.927 175.069 166.18 174.751 165.732C174.434 165.284 173.837 165.06 172.959 165.06C172.138 165.06 171.559 165.265 171.223 165.676C170.887 166.068 170.71 166.749 170.691 167.72V174.748ZM182.589 170.66V164.78H180.909V161.14H183.009L183.849 157.808H187.069V161.14H190.121V164.78H187.069V169.68C187.069 170.203 187.134 170.567 187.265 170.772C187.396 170.959 187.694 171.052 188.161 171.052C188.46 171.052 188.777 171.043 189.113 171.024C189.449 170.987 189.785 170.949 190.121 170.912L190.205 170.968V174.608C189.309 174.869 188.124 175 186.649 175C185.174 175 184.129 174.664 183.513 173.992C182.897 173.32 182.589 172.209 182.589 170.66ZM204.239 174.3C203.716 174.487 202.988 174.655 202.055 174.804C201.14 174.935 200.048 175 198.779 175C197.174 175 195.802 174.795 194.663 174.384C193.543 173.955 192.694 173.236 192.115 172.228C191.536 171.201 191.247 169.783 191.247 167.972C191.247 165.508 191.807 163.725 192.927 162.624C194.066 161.523 195.82 160.972 198.191 160.972C199.89 160.972 201.224 161.215 202.195 161.7C203.184 162.185 203.884 162.876 204.295 163.772C204.724 164.649 204.939 165.695 204.939 166.908C204.939 167.263 204.92 167.645 204.883 168.056C204.864 168.467 204.818 168.868 204.743 169.26L204.631 169.372H195.419C195.55 170.193 195.932 170.735 196.567 170.996C197.22 171.257 198.275 171.388 199.731 171.388C200.702 171.388 201.504 171.369 202.139 171.332C202.792 171.276 203.455 171.201 204.127 171.108L204.239 171.192V174.3ZM201.047 166.432C201.047 165.984 200.972 165.601 200.823 165.284C200.692 164.948 200.422 164.696 200.011 164.528C199.6 164.341 198.994 164.248 198.191 164.248C197.015 164.248 196.24 164.453 195.867 164.864C195.512 165.256 195.335 165.779 195.335 166.432H201.047ZM215.333 174.748L215.165 172.76H215.053C214.735 173.507 214.278 174.067 213.681 174.44C213.102 174.813 212.253 175 211.133 175C209.322 175 207.997 174.477 207.157 173.432C206.317 172.368 205.878 170.772 205.841 168.644C205.822 166.74 206.018 165.228 206.429 164.108C206.839 162.988 207.483 162.185 208.361 161.7C209.238 161.215 210.358 160.972 211.721 160.972C212.43 160.972 213.074 161.037 213.653 161.168C214.231 161.28 214.698 161.439 215.053 161.644L215.109 161.616V155.904H219.589V174.748H215.333ZM212.589 171.192C213.335 171.192 213.942 170.959 214.409 170.492C214.875 170.025 215.109 169.251 215.109 168.168V165.228C214.418 164.948 213.606 164.808 212.673 164.808C211.795 164.808 211.161 165.023 210.769 165.452C210.395 165.863 210.209 166.703 210.209 167.972C210.209 169.055 210.358 169.867 210.657 170.408C210.974 170.931 211.618 171.192 212.589 171.192ZM234.828 174.748H230.348V157.024H238.244C240.017 157.024 241.436 157.239 242.5 157.668C243.564 158.097 244.329 158.797 244.796 159.768C245.263 160.739 245.496 162.055 245.496 163.716C245.496 165.284 245.263 166.563 244.796 167.552C244.329 168.523 243.564 169.241 242.5 169.708C241.436 170.175 240.017 170.408 238.244 170.408H234.828V174.748ZM237.516 160.692H234.828V166.74H237.516C238.841 166.74 239.728 166.516 240.176 166.068C240.624 165.62 240.848 164.836 240.848 163.716C240.848 162.652 240.624 161.887 240.176 161.42C239.728 160.935 238.841 160.692 237.516 160.692ZM251.855 174.748H247.375V161.112H251.015L251.379 163.912H251.463C251.631 162.867 252.033 162.12 252.667 161.672C253.302 161.205 254.245 160.972 255.495 160.972C255.999 160.972 256.457 161 256.867 161.056C257.278 161.093 257.623 161.131 257.903 161.168V165.536L257.847 165.592C257.549 165.517 257.203 165.452 256.811 165.396C256.438 165.34 256.009 165.312 255.523 165.312C254.833 165.312 254.207 165.424 253.647 165.648C253.106 165.872 252.677 166.311 252.359 166.964C252.061 167.599 251.911 168.551 251.911 169.82L251.855 174.748ZM258.391 168.028C258.391 165.527 258.923 163.725 259.987 162.624C261.051 161.523 262.853 160.972 265.391 160.972C267.09 160.972 268.453 161.215 269.479 161.7C270.506 162.185 271.243 162.951 271.691 163.996C272.158 165.023 272.391 166.367 272.391 168.028C272.391 169.671 272.158 171.005 271.691 172.032C271.243 173.059 270.506 173.815 269.479 174.3C268.453 174.767 267.09 175 265.391 175C262.853 175 261.051 174.459 259.987 173.376C258.923 172.275 258.391 170.492 258.391 168.028ZM265.391 171.164C266.474 171.164 267.202 170.931 267.575 170.464C267.967 169.979 268.163 169.139 268.163 167.944C268.163 166.805 267.967 165.993 267.575 165.508C267.202 165.004 266.474 164.752 265.391 164.752C264.346 164.752 263.618 165.004 263.207 165.508C262.815 165.993 262.619 166.805 262.619 167.944C262.619 169.139 262.815 169.979 263.207 170.464C263.618 170.931 264.346 171.164 265.391 171.164ZM275.274 173.824C274.658 173.563 274.21 173.227 273.93 172.816C273.65 172.405 273.51 171.911 273.51 171.332C273.51 170.809 273.65 170.352 273.93 169.96C274.229 169.568 274.621 169.26 275.106 169.036V168.952C274.639 168.579 274.294 168.112 274.07 167.552C273.865 166.973 273.762 166.311 273.762 165.564C273.762 164.071 274.247 162.932 275.218 162.148C276.189 161.364 277.869 160.972 280.258 160.972C282.218 160.972 283.711 161.252 284.738 161.812H284.878C285.177 161.327 285.559 160.925 286.026 160.608C286.493 160.291 287.062 160.132 287.734 160.132C287.939 160.132 288.126 160.141 288.294 160.16C288.462 160.16 288.621 160.169 288.77 160.188V163.632C288.415 163.557 287.995 163.52 287.51 163.52C287.118 163.52 286.745 163.557 286.39 163.632C286.595 164.173 286.698 164.817 286.698 165.564C286.698 167.169 286.213 168.327 285.242 169.036C284.271 169.745 282.61 170.1 280.258 170.1C279.717 170.1 279.213 170.081 278.746 170.044C278.279 170.007 277.85 169.951 277.458 169.876C277.383 170.025 277.346 170.203 277.346 170.408C277.346 170.707 277.439 170.959 277.626 171.164C277.831 171.351 278.177 171.444 278.662 171.444H282.694C284.411 171.444 285.69 171.715 286.53 172.256C287.389 172.797 287.818 173.843 287.818 175.392C287.818 176.923 287.221 178.089 286.026 178.892C284.831 179.695 282.815 180.096 279.978 180.096C277.645 180.096 275.946 179.779 274.882 179.144C273.818 178.528 273.286 177.623 273.286 176.428C273.286 175.775 273.463 175.233 273.818 174.804C274.173 174.356 274.658 174.057 275.274 173.908V173.824ZM280.258 167.104C281.135 167.104 281.751 167.001 282.106 166.796C282.461 166.572 282.638 166.18 282.638 165.62C282.638 165.06 282.461 164.649 282.106 164.388C281.751 164.127 281.135 163.996 280.258 163.996C279.362 163.996 278.737 164.127 278.382 164.388C278.027 164.649 277.85 165.06 277.85 165.62C277.85 166.18 278.027 166.572 278.382 166.796C278.737 167.001 279.362 167.104 280.258 167.104ZM280.51 176.792C281.499 176.792 282.227 176.745 282.694 176.652C283.161 176.559 283.469 176.419 283.618 176.232C283.767 176.045 283.842 175.812 283.842 175.532C283.842 175.215 283.749 174.963 283.562 174.776C283.375 174.571 283.095 174.468 282.722 174.468H278.438C278.065 174.468 277.785 174.571 277.598 174.776C277.411 174.963 277.318 175.215 277.318 175.532C277.318 175.812 277.393 176.045 277.542 176.232C277.71 176.419 278.018 176.559 278.466 176.652C278.933 176.745 279.614 176.792 280.51 176.792Z" fill="#1A1A1A"/>
<circle cx="310" cy="227" r="14" fill="#1A1A1A"/>
<path d="M307.354 223.646C307.158 223.451 306.842 223.451 306.646 223.646C306.451 223.842 306.451 224.158 306.646 224.354L307.354 223.646ZM313 230.5C313.276 230.5 313.5 230.276 313.5 230L313.5 225.5C313.5 225.224 313.276 225 313 225C312.724 225 312.5 225.224 312.5 225.5L312.5 229.5L308.5 229.5C308.224 229.5 308 229.724 308 230C308 230.276 308.224 230.5 308.5 230.5L313 230.5ZM306.646 224.354L312.646 230.354L313.354 229.646L307.354 223.646L306.646 224.354Z" fill="white"/>
</g>
<defs>
<clipPath id="clip0_267_3308">
<rect width="389" height="289" rx="38" fill="white"/>
</clipPath>
</defs>
</svg>
