<svg width="389" height="289" viewBox="0 0 389 289" fill="none" xmlns="http://www.w3.org/2000/svg">
<g clip-path="url(#clip0_267_3287)">
<rect width="389" height="369" rx="15" fill="#CEBCFF"/>
<path d="M247 122.546C261.911 100.806 295.966 111.877 295.21 138.197C320.046 129.39 341.103 158.327 325.033 179.161C350.322 186.61 350.322 222.39 325.033 229.839C341.103 250.723 320.046 279.66 295.21 270.803C295.916 297.123 261.861 308.194 247 286.454C232.089 308.194 198.034 297.123 198.79 270.803C173.954 279.61 152.897 250.673 168.967 229.839C143.678 222.39 143.678 186.61 168.967 179.161C152.897 158.277 173.954 129.34 198.79 138.197C198.034 111.877 232.089 100.806 247 122.546Z" fill="#9D76F3"/>
<path d="M247 135.632C259.452 117.496 287.889 126.732 287.258 148.689C307.997 141.342 325.581 165.481 312.162 182.862C333.279 189.075 333.279 218.925 312.162 225.138C325.581 242.561 307.997 266.7 287.258 259.312C287.847 281.268 259.41 290.504 247 272.368C234.548 290.504 206.111 281.268 206.742 259.312C186.003 266.658 168.419 242.519 181.838 225.138C160.721 218.925 160.721 189.075 181.838 182.862C168.419 165.439 186.003 141.3 206.742 148.689C206.111 126.732 234.548 117.496 247 135.632Z" fill="#885AEF"/>
<path d="M25.232 170.184C26.0533 170.464 26.9493 170.688 27.92 170.856C28.9093 171.005 29.8893 171.08 30.86 171.08C32.1853 171.08 33.1653 171.024 33.8 170.912C34.4533 170.781 34.8827 170.585 35.088 170.324C35.2933 170.063 35.396 169.727 35.396 169.316C35.396 168.961 35.3213 168.681 35.172 168.476C35.0227 168.271 34.7333 168.112 34.304 168C33.8747 167.869 33.24 167.767 32.4 167.692L30.552 167.524C29.1707 167.393 28.0787 167.104 27.276 166.656C26.492 166.208 25.932 165.611 25.596 164.864C25.2787 164.099 25.12 163.184 25.12 162.12C25.12 160.851 25.372 159.824 25.876 159.04C26.3987 158.256 27.2387 157.687 28.396 157.332C29.5533 156.959 31.0933 156.772 33.016 156.772C35.5173 156.772 37.58 157.099 39.204 157.752L39.12 161.56L39.036 161.672C37.188 161.019 35.256 160.692 33.24 160.692C32.2693 160.692 31.5227 160.748 31 160.86C30.4773 160.953 30.1133 161.112 29.908 161.336C29.7027 161.56 29.6 161.877 29.6 162.288C29.6 162.699 29.6653 163.007 29.796 163.212C29.9453 163.417 30.2347 163.576 30.664 163.688C31.0933 163.781 31.7187 163.875 32.54 163.968L34.304 164.164C35.7973 164.332 36.9453 164.631 37.748 165.06C38.5507 165.489 39.1013 166.068 39.4 166.796C39.7173 167.505 39.876 168.373 39.876 169.4C39.876 170.651 39.6053 171.696 39.064 172.536C38.5413 173.357 37.6827 173.973 36.488 174.384C35.2933 174.795 33.6973 175 31.7 175C30.3933 175 29.2173 174.935 28.172 174.804C27.1267 174.655 26.1093 174.459 25.12 174.216V170.268L25.232 170.184ZM46.4158 156.044C46.4718 156.716 46.4998 157.276 46.4998 157.724C46.4998 157.985 46.4905 158.256 46.4718 158.536C46.4718 158.797 46.4531 159.096 46.4158 159.432C46.0238 159.507 45.6411 159.563 45.2678 159.6C44.8945 159.637 44.5211 159.656 44.1478 159.656C43.7931 159.656 43.4291 159.637 43.0558 159.6C42.7011 159.563 42.3371 159.507 41.9638 159.432C41.9265 159.115 41.8985 158.825 41.8798 158.564C41.8611 158.284 41.8518 158.013 41.8518 157.752C41.8518 157.509 41.8611 157.248 41.8798 156.968C41.8985 156.688 41.9265 156.38 41.9638 156.044C42.3371 155.951 42.7105 155.895 43.0838 155.876C43.4758 155.839 43.8585 155.82 44.2318 155.82C44.5865 155.82 44.9411 155.839 45.2958 155.876C45.6691 155.895 46.0425 155.951 46.4158 156.044ZM46.4158 174.748H41.9358V161.112H46.4158V174.748ZM50.0239 173.824C49.4079 173.563 48.9599 173.227 48.6799 172.816C48.3999 172.405 48.2599 171.911 48.2599 171.332C48.2599 170.809 48.3999 170.352 48.6799 169.96C48.9786 169.568 49.3706 169.26 49.8559 169.036V168.952C49.3893 168.579 49.0439 168.112 48.8199 167.552C48.6146 166.973 48.5119 166.311 48.5119 165.564C48.5119 164.071 48.9973 162.932 49.9679 162.148C50.9386 161.364 52.6186 160.972 55.0079 160.972C56.9679 160.972 58.4613 161.252 59.4879 161.812H59.6279C59.9266 161.327 60.3093 160.925 60.7759 160.608C61.2426 160.291 61.8119 160.132 62.4839 160.132C62.6893 160.132 62.8759 160.141 63.0439 160.16C63.2119 160.16 63.3706 160.169 63.5199 160.188V163.632C63.1653 163.557 62.7453 163.52 62.2599 163.52C61.8679 163.52 61.4946 163.557 61.1399 163.632C61.3453 164.173 61.4479 164.817 61.4479 165.564C61.4479 167.169 60.9626 168.327 59.9919 169.036C59.0213 169.745 57.3599 170.1 55.0079 170.1C54.4666 170.1 53.9626 170.081 53.4959 170.044C53.0293 170.007 52.5999 169.951 52.2079 169.876C52.1333 170.025 52.0959 170.203 52.0959 170.408C52.0959 170.707 52.1893 170.959 52.3759 171.164C52.5813 171.351 52.9266 171.444 53.4119 171.444H57.4439C59.1613 171.444 60.4399 171.715 61.2799 172.256C62.1386 172.797 62.5679 173.843 62.5679 175.392C62.5679 176.923 61.9706 178.089 60.7759 178.892C59.5813 179.695 57.5653 180.096 54.7279 180.096C52.3946 180.096 50.6959 179.779 49.6319 179.144C48.5679 178.528 48.0359 177.623 48.0359 176.428C48.0359 175.775 48.2133 175.233 48.5679 174.804C48.9226 174.356 49.4079 174.057 50.0239 173.908V173.824ZM55.0079 167.104C55.8853 167.104 56.5013 167.001 56.8559 166.796C57.2106 166.572 57.3879 166.18 57.3879 165.62C57.3879 165.06 57.2106 164.649 56.8559 164.388C56.5013 164.127 55.8853 163.996 55.0079 163.996C54.1119 163.996 53.4866 164.127 53.1319 164.388C52.7773 164.649 52.5999 165.06 52.5999 165.62C52.5999 166.18 52.7773 166.572 53.1319 166.796C53.4866 167.001 54.1119 167.104 55.0079 167.104ZM55.2599 176.792C56.2493 176.792 56.9773 176.745 57.4439 176.652C57.9106 176.559 58.2186 176.419 58.3679 176.232C58.5173 176.045 58.5919 175.812 58.5919 175.532C58.5919 175.215 58.4986 174.963 58.3119 174.776C58.1253 174.571 57.8453 174.468 57.4719 174.468H53.1879C52.8146 174.468 52.5346 174.571 52.3479 174.776C52.1613 174.963 52.0679 175.215 52.0679 175.532C52.0679 175.812 52.1426 176.045 52.2919 176.232C52.4599 176.419 52.7679 176.559 53.2159 176.652C53.6826 176.745 54.3639 176.792 55.2599 176.792ZM68.91 174.748H64.43V161.112H68.686L68.91 163.604H68.994C69.2553 162.764 69.722 162.12 70.394 161.672C71.066 161.205 71.9993 160.972 73.194 160.972C74.818 160.972 76.0127 161.429 76.778 162.344C77.562 163.259 77.954 164.845 77.954 167.104V174.748H73.474L73.446 167.972C73.446 166.927 73.2873 166.18 72.97 165.732C72.6527 165.284 72.0553 165.06 71.178 165.06C70.3567 165.06 69.778 165.265 69.442 165.676C69.106 166.068 68.9287 166.749 68.91 167.72V174.748ZM85.7077 160.972C87.4997 160.972 88.9463 161.159 90.0477 161.532C91.149 161.905 91.9517 162.596 92.4557 163.604C92.9783 164.593 93.2397 166.031 93.2397 167.916V174.748H89.1797L89.0397 173.46H88.9557C88.601 173.927 88.0503 174.3 87.3037 174.58C86.557 174.86 85.5863 175 84.3917 175C81.1623 175 79.5477 173.488 79.5477 170.464C79.5477 169.176 79.9677 168.168 80.8077 167.44C81.6663 166.693 83.0103 166.32 84.8397 166.32H88.9837C88.853 165.536 88.517 165.013 87.9757 164.752C87.4343 164.472 86.5103 164.332 85.2037 164.332C84.3823 164.332 83.5703 164.397 82.7677 164.528C81.9837 164.64 81.293 164.771 80.6957 164.92L80.6117 164.864L80.6397 161.616C81.013 161.504 81.489 161.401 82.0677 161.308C82.6463 161.196 83.253 161.112 83.8877 161.056C84.541 161 85.1477 160.972 85.7077 160.972ZM85.5397 171.696C86.697 171.696 87.565 171.556 88.1437 171.276C88.7223 170.977 89.021 170.511 89.0397 169.876V169.176H85.8757C85.0543 169.176 84.4757 169.297 84.1397 169.54C83.8223 169.764 83.6637 170.072 83.6637 170.464C83.6637 170.931 83.8317 171.257 84.1677 171.444C84.5037 171.612 84.961 171.696 85.5397 171.696ZM100.148 174.748H95.6683V155.904H100.148V174.748ZM102.4 170.884C103.856 171.295 105.471 171.5 107.244 171.5C108.103 171.5 108.747 171.472 109.176 171.416C109.605 171.36 109.895 171.267 110.044 171.136C110.193 171.005 110.268 170.828 110.268 170.604C110.268 170.287 110.147 170.091 109.904 170.016C109.68 169.941 109.223 169.839 108.532 169.708L106.32 169.288C104.901 169.008 103.875 168.569 103.24 167.972C102.624 167.356 102.316 166.441 102.316 165.228C102.316 163.585 102.801 162.465 103.772 161.868C104.761 161.271 106.329 160.972 108.476 160.972C109.764 160.972 110.893 161.047 111.864 161.196C112.853 161.327 113.675 161.495 114.328 161.7L114.272 165.088L114.188 165.172C112.676 164.687 111.024 164.444 109.232 164.444C108.355 164.444 107.739 164.509 107.384 164.64C107.048 164.752 106.88 164.985 106.88 165.34C106.88 165.527 106.927 165.676 107.02 165.788C107.132 165.9 107.375 166.012 107.748 166.124C108.121 166.217 108.709 166.339 109.512 166.488L111.556 166.88C112.695 167.123 113.535 167.524 114.076 168.084C114.617 168.644 114.888 169.531 114.888 170.744C114.888 171.808 114.692 172.657 114.3 173.292C113.908 173.908 113.245 174.347 112.312 174.608C111.397 174.869 110.128 175 108.504 175C107.272 175 106.133 174.944 105.088 174.832C104.061 174.701 103.137 174.552 102.316 174.384V170.94L102.4 170.884ZM135.465 167.692V165.368H139.217V168.84C139.217 169.587 139.133 170.259 138.965 170.856L140.673 172.34L138.573 174.86L137.173 173.628C135.922 174.543 134.093 175 131.685 175C129.837 175 128.353 174.823 127.233 174.468C126.131 174.113 125.329 173.525 124.825 172.704C124.339 171.883 124.097 170.772 124.097 169.372C124.097 167.767 124.386 166.619 124.965 165.928C125.543 165.219 126.215 164.836 126.981 164.78L127.037 164.668C126.57 164.201 126.253 163.716 126.085 163.212C125.917 162.689 125.833 162.045 125.833 161.28C125.833 159.731 126.253 158.592 127.093 157.864C127.951 157.117 129.482 156.744 131.685 156.744C133.365 156.744 134.643 156.893 135.521 157.192C136.417 157.491 137.023 157.995 137.341 158.704C137.677 159.395 137.845 160.356 137.845 161.588V162.484H133.757C133.794 161.588 133.682 161 133.421 160.72C133.159 160.421 132.599 160.272 131.741 160.272C130.994 160.272 130.499 160.384 130.257 160.608C130.014 160.832 129.893 161.215 129.893 161.756C129.893 162.167 129.986 162.531 130.173 162.848C130.359 163.165 130.733 163.567 131.293 164.052L135.409 167.692H135.465ZM134.037 170.884L129.417 166.824C129.118 166.861 128.857 167.057 128.633 167.412C128.427 167.767 128.325 168.271 128.325 168.924C128.325 169.559 128.418 170.044 128.605 170.38C128.791 170.716 129.127 170.949 129.613 171.08C130.098 171.192 130.789 171.248 131.685 171.248C132.637 171.248 133.421 171.145 134.037 170.94V170.884ZM149.568 170.184C150.389 170.464 151.285 170.688 152.256 170.856C153.245 171.005 154.225 171.08 155.196 171.08C156.521 171.08 157.501 171.024 158.136 170.912C158.789 170.781 159.219 170.585 159.424 170.324C159.629 170.063 159.732 169.727 159.732 169.316C159.732 168.961 159.657 168.681 159.508 168.476C159.359 168.271 159.069 168.112 158.64 168C158.211 167.869 157.576 167.767 156.736 167.692L154.888 167.524C153.507 167.393 152.415 167.104 151.612 166.656C150.828 166.208 150.268 165.611 149.932 164.864C149.615 164.099 149.456 163.184 149.456 162.12C149.456 160.851 149.708 159.824 150.212 159.04C150.735 158.256 151.575 157.687 152.732 157.332C153.889 156.959 155.429 156.772 157.352 156.772C159.853 156.772 161.916 157.099 163.54 157.752L163.456 161.56L163.372 161.672C161.524 161.019 159.592 160.692 157.576 160.692C156.605 160.692 155.859 160.748 155.336 160.86C154.813 160.953 154.449 161.112 154.244 161.336C154.039 161.56 153.936 161.877 153.936 162.288C153.936 162.699 154.001 163.007 154.132 163.212C154.281 163.417 154.571 163.576 155 163.688C155.429 163.781 156.055 163.875 156.876 163.968L158.64 164.164C160.133 164.332 161.281 164.631 162.084 165.06C162.887 165.489 163.437 166.068 163.736 166.796C164.053 167.505 164.212 168.373 164.212 169.4C164.212 170.651 163.941 171.696 163.4 172.536C162.877 173.357 162.019 173.973 160.824 174.384C159.629 174.795 158.033 175 156.036 175C154.729 175 153.553 174.935 152.508 174.804C151.463 174.655 150.445 174.459 149.456 174.216V170.268L149.568 170.184ZM168.092 179.9L170.248 174.776L164.844 161.168V161.112H169.856C170.378 162.587 170.864 164.071 171.312 165.564C171.778 167.057 172.152 168.588 172.432 170.156H172.488C172.768 168.607 173.122 167.085 173.552 165.592C174 164.099 174.504 162.605 175.064 161.112H179.88V161.196L172.684 179.956H168.092V179.9ZM180.447 170.884C181.903 171.295 183.517 171.5 185.291 171.5C186.149 171.5 186.793 171.472 187.223 171.416C187.652 171.36 187.941 171.267 188.091 171.136C188.24 171.005 188.315 170.828 188.315 170.604C188.315 170.287 188.193 170.091 187.951 170.016C187.727 169.941 187.269 169.839 186.579 169.708L184.367 169.288C182.948 169.008 181.921 168.569 181.287 167.972C180.671 167.356 180.363 166.441 180.363 165.228C180.363 163.585 180.848 162.465 181.819 161.868C182.808 161.271 184.376 160.972 186.523 160.972C187.811 160.972 188.94 161.047 189.911 161.196C190.9 161.327 191.721 161.495 192.375 161.7L192.319 165.088L192.235 165.172C190.723 164.687 189.071 164.444 187.279 164.444C186.401 164.444 185.785 164.509 185.431 164.64C185.095 164.752 184.927 164.985 184.927 165.34C184.927 165.527 184.973 165.676 185.067 165.788C185.179 165.9 185.421 166.012 185.795 166.124C186.168 166.217 186.756 166.339 187.559 166.488L189.603 166.88C190.741 167.123 191.581 167.524 192.123 168.084C192.664 168.644 192.935 169.531 192.935 170.744C192.935 171.808 192.739 172.657 192.347 173.292C191.955 173.908 191.292 174.347 190.359 174.608C189.444 174.869 188.175 175 186.551 175C185.319 175 184.18 174.944 183.135 174.832C182.108 174.701 181.184 174.552 180.363 174.384V170.94L180.447 170.884ZM195.089 170.66V164.78H193.409V161.14H195.509L196.349 157.808H199.569V161.14H202.621V164.78H199.569V169.68C199.569 170.203 199.634 170.567 199.765 170.772C199.896 170.959 200.194 171.052 200.661 171.052C200.96 171.052 201.277 171.043 201.613 171.024C201.949 170.987 202.285 170.949 202.621 170.912L202.705 170.968V174.608C201.809 174.869 200.624 175 199.149 175C197.674 175 196.629 174.664 196.013 173.992C195.397 173.32 195.089 172.209 195.089 170.66ZM216.739 174.3C216.216 174.487 215.488 174.655 214.555 174.804C213.64 174.935 212.548 175 211.279 175C209.674 175 208.302 174.795 207.163 174.384C206.043 173.955 205.194 173.236 204.615 172.228C204.036 171.201 203.747 169.783 203.747 167.972C203.747 165.508 204.307 163.725 205.427 162.624C206.566 161.523 208.32 160.972 210.691 160.972C212.39 160.972 213.724 161.215 214.695 161.7C215.684 162.185 216.384 162.876 216.795 163.772C217.224 164.649 217.439 165.695 217.439 166.908C217.439 167.263 217.42 167.645 217.383 168.056C217.364 168.467 217.318 168.868 217.243 169.26L217.131 169.372H207.919C208.05 170.193 208.432 170.735 209.067 170.996C209.72 171.257 210.775 171.388 212.231 171.388C213.202 171.388 214.004 171.369 214.639 171.332C215.292 171.276 215.955 171.201 216.627 171.108L216.739 171.192V174.3ZM213.547 166.432C213.547 165.984 213.472 165.601 213.323 165.284C213.192 164.948 212.922 164.696 212.511 164.528C212.1 164.341 211.494 164.248 210.691 164.248C209.515 164.248 208.74 164.453 208.367 164.864C208.012 165.256 207.835 165.779 207.835 166.432H213.547ZM236.261 160.972C237.642 160.972 238.734 161.429 239.537 162.344C240.358 163.259 240.769 164.845 240.769 167.104V174.748H236.289L236.261 167.664C236.261 166.749 236.121 166.087 235.841 165.676C235.579 165.265 235.057 165.06 234.273 165.06C233.489 165.06 232.957 165.265 232.677 165.676C232.415 166.087 232.285 166.749 232.285 167.664V174.748H227.805L227.777 167.664C227.777 166.749 227.637 166.087 227.357 165.676C227.095 165.265 226.573 165.06 225.789 165.06C225.005 165.06 224.473 165.265 224.193 165.676C223.931 166.087 223.801 166.749 223.801 167.664V174.748H219.321V161.112H223.577L223.801 163.604H223.885C224.127 162.783 224.547 162.139 225.145 161.672C225.761 161.205 226.629 160.972 227.749 160.972C228.869 160.972 229.746 161.205 230.381 161.672C231.034 162.139 231.454 162.783 231.641 163.604H231.725C231.967 162.764 232.434 162.12 233.125 161.672C233.834 161.205 234.879 160.972 236.261 160.972ZM242.732 170.884C244.188 171.295 245.803 171.5 247.576 171.5C248.435 171.5 249.079 171.472 249.508 171.416C249.937 171.36 250.227 171.267 250.376 171.136C250.525 171.005 250.6 170.828 250.6 170.604C250.6 170.287 250.479 170.091 250.236 170.016C250.012 169.941 249.555 169.839 248.864 169.708L246.652 169.288C245.233 169.008 244.207 168.569 243.572 167.972C242.956 167.356 242.648 166.441 242.648 165.228C242.648 163.585 243.133 162.465 244.104 161.868C245.093 161.271 246.661 160.972 248.808 160.972C250.096 160.972 251.225 161.047 252.196 161.196C253.185 161.327 254.007 161.495 254.66 161.7L254.604 165.088L254.52 165.172C253.008 164.687 251.356 164.444 249.564 164.444C248.687 164.444 248.071 164.509 247.716 164.64C247.38 164.752 247.212 164.985 247.212 165.34C247.212 165.527 247.259 165.676 247.352 165.788C247.464 165.9 247.707 166.012 248.08 166.124C248.453 166.217 249.041 166.339 249.844 166.488L251.888 166.88C253.027 167.123 253.867 167.524 254.408 168.084C254.949 168.644 255.22 169.531 255.22 170.744C255.22 171.808 255.024 172.657 254.632 173.292C254.24 173.908 253.577 174.347 252.644 174.608C251.729 174.869 250.46 175 248.836 175C247.604 175 246.465 174.944 245.42 174.832C244.393 174.701 243.469 174.552 242.648 174.384V170.94L242.732 170.884Z" fill="#1A1A1A"/>
<circle cx="310" cy="227" r="14" fill="#1A1A1A"/>
<path d="M307.354 223.646C307.158 223.451 306.842 223.451 306.646 223.646C306.451 223.842 306.451 224.158 306.646 224.354L307.354 223.646ZM313 230.5C313.276 230.5 313.5 230.276 313.5 230L313.5 225.5C313.5 225.224 313.276 225 313 225C312.724 225 312.5 225.224 312.5 225.5L312.5 229.5L308.5 229.5C308.224 229.5 308 229.724 308 230C308 230.276 308.224 230.5 308.5 230.5L313 230.5ZM306.646 224.354L312.646 230.354L313.354 229.646L307.354 223.646L306.646 224.354Z" fill="white"/>
</g>
<defs>
<clipPath id="clip0_267_3287">
<rect width="389" height="289" rx="38" fill="white"/>
</clipPath>
</defs>
</svg>
