<svg width="52" height="51" viewBox="0 0 52 51" fill="none" xmlns="http://www.w3.org/2000/svg">
<g clip-path="url(#clip0_267_3539)">
<path d="M43.5233 9.45753C40.2727 7.99528 36.787 6.91796 33.1424 6.30093C33.076 6.28902 33.0097 6.31878 32.9755 6.3783C32.5272 7.16 32.0307 8.17979 31.6829 8.98134C27.763 8.40598 23.8631 8.40598 20.0235 8.98134C19.6757 8.16197 19.1611 7.16 18.7108 6.3783C18.6766 6.32077 18.6103 6.29101 18.544 6.30093C14.9014 6.91598 11.4157 7.99331 8.1631 9.45753C8.13494 9.46944 8.1108 9.48929 8.09479 9.51507C1.48307 19.1992 -0.32816 28.6452 0.560367 37.9742C0.564388 38.0198 0.59052 38.0635 0.626705 38.0912C4.98893 41.2319 9.21449 43.1386 13.3616 44.4024C13.4279 44.4223 13.4983 44.3985 13.5405 44.3449C14.5215 43.0315 15.396 41.6466 16.1457 40.1903C16.19 40.105 16.1478 40.0038 16.0573 39.9701C14.6703 39.4542 13.3495 38.8253 12.079 38.1111C11.9785 38.0535 11.9705 37.9126 12.0629 37.8451C12.3303 37.6487 12.5977 37.4444 12.853 37.238C12.8992 37.2004 12.9636 37.1924 13.0179 37.2162C21.3643 40.9522 30.4004 40.9522 38.6484 37.2162C38.7027 37.1904 38.767 37.1984 38.8152 37.2361C39.0706 37.4424 39.338 37.6487 39.6073 37.8451C39.6998 37.9126 39.6937 38.0535 39.5933 38.1111C38.3228 38.8392 37.002 39.4542 35.6129 39.9681C35.5225 40.0018 35.4823 40.105 35.5265 40.1903C36.2924 41.6446 37.1669 43.0294 38.1298 44.3429C38.17 44.3985 38.2423 44.4223 38.3087 44.4024C42.4759 43.1386 46.7014 41.2319 51.0637 38.0912C51.1019 38.0635 51.126 38.0218 51.13 37.9761C52.1934 27.1908 49.3489 17.8223 43.5896 9.51704C43.5755 9.48929 43.5514 9.46944 43.5233 9.45753ZM17.3922 32.2938C14.8793 32.2938 12.8088 30.032 12.8088 27.2544C12.8088 24.4767 14.8391 22.2149 17.3922 22.2149C19.9652 22.2149 22.0157 24.4965 21.9755 27.2544C21.9755 30.032 19.9451 32.2938 17.3922 32.2938ZM34.3385 32.2938C31.8257 32.2938 29.7551 30.032 29.7551 27.2544C29.7551 24.4767 31.7854 22.2149 34.3385 22.2149C36.9116 22.2149 38.962 24.4965 38.9218 27.2544C38.9218 30.032 36.9116 32.2938 34.3385 32.2938Z" fill="black"/>
</g>
<defs>
<clipPath id="clip0_267_3539">
<rect width="51" height="50" fill="white" transform="translate(0.349609 0.800049)"/>
</clipPath>
</defs>
</svg>
