<svg width="52" height="52" viewBox="0 0 52 52" fill="none" xmlns="http://www.w3.org/2000/svg">
<g clip-path="url(#clip0_267_3541)">
<path fill-rule="evenodd" clip-rule="evenodd" d="M51.3496 25.8C51.3496 39.8833 39.9329 51.3 25.8496 51.3C11.7663 51.3 0.349609 39.8833 0.349609 25.8C0.349609 11.7168 11.7663 0.300049 25.8496 0.300049C39.9329 0.300049 51.3496 11.7168 51.3496 25.8ZM26.7634 19.1253C24.2832 20.1569 19.3261 22.2921 11.8924 25.5309C10.6853 26.0109 10.0529 26.4805 9.99534 26.9397C9.89805 27.7157 10.8699 28.0213 12.1932 28.4374C12.3732 28.494 12.5598 28.5527 12.751 28.6148C14.053 29.0381 15.8044 29.5332 16.7148 29.5529C17.5407 29.5707 18.4625 29.2302 19.4802 28.5314C26.4258 23.8429 30.0112 21.4731 30.2363 21.4221C30.3951 21.386 30.6151 21.3407 30.7642 21.4732C30.9133 21.6057 30.8987 21.8567 30.8829 21.9241C30.7866 22.3345 26.9719 25.881 24.9977 27.7163C24.3823 28.2885 23.9458 28.6943 23.8565 28.787C23.6566 28.9947 23.4529 29.1911 23.2571 29.3798C22.0475 30.5459 21.1404 31.4203 23.3073 32.8482C24.3486 33.5344 25.1819 34.1019 26.0131 34.668C26.921 35.2862 27.8265 35.9029 28.998 36.6708C29.2965 36.8665 29.5816 37.0697 29.8593 37.2677C30.9158 38.0209 31.865 38.6976 33.0376 38.5896C33.719 38.5269 34.4228 37.8862 34.7803 35.9753C35.6251 31.4592 37.2856 21.6743 37.6693 17.6421C37.7029 17.2889 37.6606 16.8367 37.6267 16.6383C37.5927 16.4398 37.5217 16.157 37.2638 15.9477C36.9582 15.6998 36.4866 15.6475 36.2756 15.6512C35.3165 15.6681 33.845 16.1798 26.7634 19.1253Z" fill="black"/>
</g>
<defs>
<clipPath id="clip0_267_3541">
<rect width="51" height="51" fill="white" transform="translate(0.349609 0.300049)"/>
</clipPath>
</defs>
</svg>
