<svg width="52" height="51" viewBox="0 0 52 51" fill="none" xmlns="http://www.w3.org/2000/svg">
<path d="M0.349609 50.8L3.93448 37.9605C1.72236 34.2021 0.559984 29.9417 0.562109 25.573C0.568484 11.9146 11.9053 0.800049 25.8347 0.800049C32.5943 0.802132 38.9395 3.38338 43.7123 8.06672C48.4829 12.75 51.1094 18.975 51.1073 25.5959C51.1009 39.2563 39.764 50.3709 25.8347 50.3709C21.6059 50.3688 17.4388 49.3292 13.7477 47.3542L0.349609 50.8ZM14.3682 42.8688C17.9297 44.9417 21.3297 46.1834 25.8262 46.1855C37.4031 46.1855 46.8339 36.948 46.8403 25.5917C46.8445 14.2125 37.4584 4.98755 25.8432 4.98338C14.2577 4.98338 4.83335 14.2209 4.8291 25.575C4.82697 30.2105 6.21247 33.6813 8.53934 37.3125L6.41647 44.9125L14.3682 42.8688ZM38.5655 31.4855C38.4083 31.2271 37.9875 31.073 37.3543 30.7625C36.7232 30.4521 33.6185 28.9542 33.0384 28.748C32.4604 28.5417 32.0397 28.4375 31.6168 29.0584C31.196 29.6771 29.9848 31.073 29.6172 31.4855C29.2495 31.898 28.8798 31.95 28.2487 31.6396C27.6175 31.3292 25.5818 30.6771 23.1699 28.5667C21.2936 26.925 20.0249 24.898 19.6573 24.2771C19.2897 23.6584 19.6191 23.323 19.9336 23.0146C20.2183 22.7375 20.5647 22.2917 20.8813 21.9292C21.2022 21.5709 21.3063 21.3125 21.5188 20.898C21.7292 20.4855 21.6251 20.123 21.4657 19.8125C21.3063 19.5042 20.0441 16.4563 19.5192 15.2167C19.0049 14.0105 18.4843 14.173 18.0976 14.1542L16.8863 14.1334C16.4656 14.1334 15.7813 14.2875 15.2033 14.9084C14.6253 15.5292 12.9933 17.025 12.9933 20.073C12.9933 23.1209 15.2564 26.0646 15.5709 26.4771C15.8876 26.8896 20.0228 33.1438 26.3574 35.825C27.864 36.4625 29.0413 36.8438 29.9572 37.1292C31.4702 37.6 32.8472 37.5334 33.9352 37.375C35.1485 37.198 37.6709 35.8771 38.1979 34.4313C38.7249 32.9834 38.7249 31.7438 38.5655 31.4855Z" fill="black"/>
</svg>
