<svg width="52" height="51" viewBox="0 0 52 51" fill="none" xmlns="http://www.w3.org/2000/svg">
<g clip-path="url(#clip0_267_3535)">
<path fill-rule="evenodd" clip-rule="evenodd" d="M25.8707 0.800049C11.7582 0.800049 0.349609 12.0674 0.349609 26.0066C0.349609 37.149 7.65949 46.5808 17.8002 49.919C19.0681 50.17 19.5325 49.3767 19.5325 48.7093C19.5325 48.125 19.4907 46.1219 19.4907 44.0349C12.3913 45.5376 10.913 41.0301 10.913 41.0301C9.77205 38.1088 8.08158 37.358 8.08158 37.358C5.75797 35.8138 8.25084 35.8138 8.25084 35.8138C10.8283 35.9808 12.1808 38.4012 12.1808 38.4012C14.4621 42.2403 18.1382 41.1556 19.6171 40.4877C19.8282 38.8601 20.5047 37.7334 21.223 37.1075C15.5607 36.5232 9.60332 34.3532 9.60332 24.671C9.60332 21.9166 10.6168 19.6631 12.2226 17.9105C11.9692 17.2847 11.0817 14.6968 12.4765 11.2331C12.4765 11.2331 14.6314 10.5653 19.4902 13.8205C21.5704 13.2687 23.7157 12.988 25.8707 12.9857C28.0256 12.9857 30.2223 13.2781 32.2507 13.8205C37.11 10.5653 39.2649 11.2331 39.2649 11.2331C40.6597 14.6968 39.7716 17.2847 39.5183 17.9105C41.1664 19.6631 42.1381 21.9166 42.1381 24.671C42.1381 34.3532 36.1807 36.4812 30.4761 37.1075C31.406 37.9004 32.2084 39.4025 32.2084 41.7814C32.2084 45.1616 32.1666 47.8745 32.1666 48.7088C32.1666 49.3767 32.6315 50.17 33.8989 49.9195C44.0396 46.5803 51.3495 37.149 51.3495 26.0066C51.3913 12.0674 39.9409 0.800049 25.8707 0.800049Z" fill="black"/>
</g>
<defs>
<clipPath id="clip0_267_3535">
<rect width="51" height="50" fill="white" transform="translate(0.349609 0.800049)"/>
</clipPath>
</defs>
</svg>
